<svg width="34" height="34" viewBox="0 0 34 34" fill="none" xmlns="http://www.w3.org/2000/svg">
<g id="Group">
<g id="Group_2">
<path id="Vector" d="M20.5411 21.9048C19.0012 22.421 17.7845 23.6377 17.2676 25.1753C17.1799 25.4362 16.8163 25.4362 16.7287 25.1753C16.2117 23.6377 14.9932 22.421 13.4532 21.9048C13.192 21.8172 13.192 21.4543 13.4532 21.3667C14.9932 20.8505 16.2117 19.6338 16.7287 18.098C16.8163 17.8371 17.1799 17.8371 17.2676 18.098C17.7845 19.6357 19.003 20.8505 20.5411 21.3667C20.8024 21.4543 20.8024 21.8172 20.5411 21.9048Z" fill="#202020"/>
<path id="Vector_2" d="M34 16.5935V33.7197H24.3747V16.5935C24.3747 13.2847 21.9323 10.5048 18.6642 9.79158C18.5966 9.77699 18.5272 9.7624 18.4596 9.74963C17.9883 9.65843 17.4987 9.611 17.0018 9.611C16.6803 9.611 16.3606 9.63106 16.0501 9.66937C15.7578 9.70585 15.471 9.75692 15.1897 9.82624C11.9965 10.5887 9.62895 13.3321 9.62895 16.5935V30.2795L17.0018 33.7178H0V16.5935C0 8.04048 6.66226 0.977699 15.1878 0.0930273C15.4746 0.0638423 15.7614 0.0401294 16.0519 0.0255369C16.3661 0.00912033 16.6785 0 17 0C17.4914 0 17.9773 0.0200647 18.4578 0.0601942C18.529 0.0656663 18.5984 0.0729626 18.6697 0.0802589C27.2628 0.901088 34 7.99123 34 16.5935Z" fill="#202020"/>
</g>
</g>
</svg>
