<svg width="707" height="98" viewBox="0 0 707 98" fill="none" xmlns="http://www.w3.org/2000/svg">
<path d="M64.5503 1.7915L0 96.1033H28.8528L37.0664 82.5098H64.2344V96.1033H88.2434V1.7915H64.5503ZM64.3397 63.3313H48.5444L64.0238 37.198H64.2344V63.3313H64.3397Z" fill="white"/>
<path d="M139.104 29.2946C138.051 22.5505 135.314 20.1269 130.575 20.1269C126.152 20.1269 122.361 23.2882 122.361 27.5032C122.361 33.0882 127.416 35.6172 137.736 40.1484C158.48 49.1054 163.64 56.5871 163.64 68.9161C163.64 87.1462 151.214 97.8946 130.786 97.8946C110.462 97.8946 96.7729 87.1462 96.7729 66.914V64.9118H120.782C120.887 72.7097 124.678 77.7677 130.68 77.7677C135.63 77.7677 139.736 73.8688 139.736 68.7054C139.736 61.2236 129.311 57.8516 120.782 54.4796C105.408 48.157 98.4578 40.043 98.4578 27.8194C98.4578 11.6968 113.937 0 131.207 0C137.42 0 142.895 1.36989 147.845 3.89892C157.848 9.16774 162.692 16.6495 162.903 29.2946H139.104Z" fill="white"/>
<path d="M183.226 96.1033V22.9721H164.693V1.7915H225.768V22.9721H207.34V96.1033H183.226Z" fill="white"/>
<path d="M279.156 63.9635C293.688 61.4344 302.534 49.2108 302.534 34.2473C302.534 20.8645 295.373 9.80001 285.264 5.16346C280.315 2.95055 272.838 1.68604 263.045 1.68604H232.297V95.9979H255.358V65.6495H255.569L277.366 96.1032H304.85L279.156 63.9635ZM264.098 49.2108H255.147V22.9721H264.309C273.365 22.9721 279.472 27.6086 279.472 35.7226C279.578 44.785 273.681 49.2108 264.098 49.2108Z" fill="white"/>
<path d="M358.87 0C330.228 0 309.273 21.9183 309.273 51.1075C309.273 79.0323 333.071 97.8946 360.029 97.8946C386.986 97.8946 408.573 75.3441 408.573 48.3677C408.678 21.286 387.513 0 358.87 0ZM382.458 50.686C372.244 54.0581 364.241 61.9613 360.766 71.972C360.239 73.6581 357.817 73.6581 357.186 71.972C353.816 61.9613 345.708 54.0581 335.493 50.686C333.808 50.1591 333.808 47.7355 335.493 47.2086C345.708 43.8366 353.711 35.9333 357.186 26.028C357.712 24.3419 360.134 24.3419 360.766 26.028C364.135 36.0387 372.244 43.9419 382.458 47.2086C384.143 47.7355 384.143 50.1591 382.458 50.686Z" fill="white"/>
<path d="M516.087 78.7161C512.401 78.7161 508.716 77.557 506.294 75.4495C511.769 67.6516 514.086 59.1161 514.086 48.2624C514.086 22.7613 491.973 0 463.857 0C435.741 0 414.365 22.5505 414.365 50.4753C414.365 76.5032 437.637 98 464.067 98C473.755 98 481.864 95.7871 490.498 90.6236C494.71 95.2602 503.24 98 512.717 98C514.507 98 515.56 98 518.614 97.7892V78.6107C517.772 78.7161 516.719 78.7161 516.087 78.7161ZM463.857 76.8194C454.59 76.8194 445.429 70.7075 440.901 60.9075C443.955 59.8538 446.271 59.3269 449.115 59.3269C458.802 59.3269 465.858 63.4366 474.598 74.5011C471.439 76.1871 467.542 76.8194 463.857 76.8194ZM486.813 61.6452C476.493 49 464.067 41.729 451.852 41.729C446.903 41.729 443.112 42.9935 438.479 44.8903V44.7849C441.427 30.0323 450.905 21.0753 463.752 21.0753C479.231 21.0753 489.972 32.8774 489.972 47.7355C489.972 52.7935 489.235 57.5355 486.813 61.6452Z" fill="white"/>
<path d="M579.584 96.1033V86.7248H579.163C574.53 93.8904 565.79 97.8947 556.523 97.8947C536.2 97.8947 525.143 86.0926 525.143 60.4861V1.7915H549.152V58.2732C549.152 69.97 554.101 76.6087 564.21 76.6087C572.95 76.6087 578.321 70.2861 578.321 60.0646V1.7915H602.329V96.1033H579.584Z" fill="white"/>
<path d="M616.229 96.1033V1.7915H640.238V96.1033H616.229Z" fill="white"/>
<path d="M647.609 96.1033V80.2969L680.042 22.9721H647.609V1.7915H707V21.2861L676.989 74.9227H707V96.1033H647.609Z" fill="white"/>
</svg>
