<svg width="144" height="143" viewBox="0 0 144 143" fill="none" xmlns="http://www.w3.org/2000/svg">
<g id="Group">
<path id="Vector" d="M87.0017 92.775C80.4795 94.9613 75.3267 100.114 73.1371 106.627C72.7657 107.731 71.2261 107.731 70.8547 106.627C68.6652 100.114 63.5046 94.9613 56.9824 92.775C55.876 92.4041 55.876 90.8668 56.9824 90.496C63.5046 88.3097 68.6652 83.1568 70.8547 76.6519C71.2261 75.5472 72.7657 75.5472 73.1371 76.6519C75.3267 83.1645 80.4872 88.3097 87.0017 90.496C88.1081 90.8668 88.1081 92.4041 87.0017 92.775Z" fill="white"/>
<path id="Vector_2" d="M144 70.2784V142.813H103.234V70.2784C103.234 56.2645 92.8897 44.4909 79.0483 41.4702C78.7621 41.4084 78.4681 41.3466 78.1818 41.2925C76.1857 40.9063 74.1122 40.7054 72.0077 40.7054C70.646 40.7054 69.2921 40.7904 67.9768 40.9526C66.7389 41.1071 65.5242 41.3234 64.3327 41.617C50.8085 44.8462 40.7814 56.4653 40.7814 70.2784V128.242L72.0077 142.805H0V70.2784C0 34.0538 28.2166 4.14084 64.3249 0.393998C65.5396 0.270391 66.7543 0.16996 67.9845 0.108156C69.3153 0.0386273 70.6383 0 72 0C74.0812 0 76.1393 0.08498 78.1741 0.25494C78.4758 0.278116 78.7698 0.309018 79.0716 0.33992C115.466 3.81637 144 33.8452 144 70.2784Z" fill="url(#paint0_angular_1910_21881)"/>
</g>
<defs>
<radialGradient id="paint0_angular_1910_21881" cx="0" cy="0" r="1" gradientUnits="userSpaceOnUse" gradientTransform="translate(72 71.4063) rotate(90) scale(71.4063 72)">
<stop offset="0.0471927" stop-color="#FF4A9B"/>
<stop offset="0.322669" stop-color="#9C7DDF"/>
<stop offset="0.503602" stop-color="#9C7DDF"/>
<stop offset="0.702369" stop-color="#BFFF74"/>
<stop offset="1" stop-color="#FF6DAF"/>
</radialGradient>
</defs>
</svg>
