<svg width="667" height="133" viewBox="0 0 667 133" fill="none" xmlns="http://www.w3.org/2000/svg">
<path d="M1.48969 106.513C0.496564 106.513 0 106.016 0 105.023C0 104.626 0.148969 103.832 0.446908 102.64C0.645534 101.448 0.943472 100.505 1.34072 99.8094C4.41942 99.3129 6.90224 98.3197 8.78919 96.83C10.7754 95.241 12.6624 92.3113 14.45 88.0408L49.9047 4.02217C50.4013 2.83042 50.9972 1.88694 51.6923 1.19175C52.3875 0.397249 53.2813 0 54.3738 0H59.2898L91.4671 84.4656C93.0561 88.4381 94.4962 91.6161 95.7872 93.9996C97.1776 96.2838 98.8659 97.6742 100.852 98.1708C101.647 98.3694 102.59 98.5183 103.683 98.6177C104.775 98.717 105.967 98.8163 107.258 98.9156C107.357 99.9087 107.258 101.051 106.96 102.342C106.761 103.633 106.563 104.527 106.364 105.023C106.066 106.016 105.52 106.513 104.725 106.513H71.9522C70.959 106.513 70.4625 106.016 70.4625 105.023C70.4625 104.626 70.5618 103.832 70.7604 102.64C71.0583 101.448 71.4059 100.505 71.8032 99.8094C74.3853 99.7101 76.2226 99.4122 77.3151 98.9156C78.4075 98.419 78.9537 97.3762 78.9537 95.7872C78.9537 94.7941 78.7054 93.5527 78.2089 92.063C77.8116 90.474 77.2157 88.5871 76.4212 86.4022L70.9094 71.2073H32.0284L25.1758 88.1898C24.4806 89.8781 23.9344 91.3182 23.5371 92.5099C23.1399 93.7017 22.9413 94.6948 22.9413 95.4893C22.9413 97.0783 24.0337 98.1211 26.2186 98.6177C27.0131 98.717 28.0062 98.8163 29.198 98.9156C30.3897 98.9156 31.5815 98.9156 32.7732 98.9156C32.7732 101.597 32.5746 103.633 32.1774 105.023C31.8794 106.016 31.3332 106.513 30.5387 106.513H1.48969ZM35.6037 62.2692H67.6321L53.182 23.0902C53.0827 22.5937 52.8344 22.3454 52.4372 22.3454C52.0399 22.3454 51.742 22.5937 51.5434 23.0902L35.6037 62.2692Z" fill="white"/>
<path d="M135.574 108.748C132.098 108.748 128.622 108.35 125.146 107.556C121.67 106.662 118.492 105.272 115.612 103.385C113.824 102.094 112.186 100.604 110.696 98.9156C109.305 97.128 108.61 95.4893 108.61 93.9996C108.61 93.0065 109.305 91.8644 110.696 90.5733C112.186 89.1829 113.874 87.8919 115.761 86.7001C117.648 85.5084 119.237 84.7139 120.528 84.3166C121.223 87.7926 122.564 90.6726 124.55 92.9568C126.636 95.1417 129.069 96.7804 131.85 97.8728C134.63 98.9653 137.411 99.5115 140.192 99.5115C142.873 99.5115 145.058 98.8659 146.746 97.5749C148.534 96.2838 149.478 94.2479 149.577 91.4671C149.676 87.3953 148.137 84.3166 144.959 82.231C141.88 80.0462 138.355 78.3578 134.382 77.1661C127.927 75.1798 122.514 72.5977 118.144 69.4197C113.874 66.1424 111.739 61.574 111.739 55.7145C111.739 48.8619 114.37 43.6977 119.634 40.2217C124.997 36.7458 131.75 35.0078 139.894 35.0078C145.455 35.0078 150.471 36.1002 154.94 38.2851C159.409 40.3707 162.19 43.499 163.282 47.6702C163.282 48.9612 162.587 50.2523 161.196 51.5434C159.806 52.7351 158.118 53.7283 156.132 54.5228C154.145 55.2179 152.258 55.5159 150.471 55.4166C150.272 51.1461 148.782 48.0674 146.002 46.1805C143.32 44.2935 140.291 43.3501 136.914 43.3501C134.432 43.3501 132.098 44.0452 129.913 45.4356C127.827 46.7267 126.785 48.7626 126.785 51.5434C126.785 53.9269 127.529 55.9628 129.019 57.6511C130.608 59.2401 132.545 60.5808 134.829 61.6733C137.212 62.7657 139.596 63.7092 141.979 64.5037C145.555 65.5961 149.08 66.9369 152.556 68.5259C156.032 70.1149 158.912 72.3494 161.196 75.2295C163.481 78.1096 164.573 82.0324 164.474 86.9981C164.474 91.9637 163.034 96.0852 160.154 99.3625C157.373 102.541 153.748 104.924 149.279 106.513C144.909 108.003 140.341 108.748 135.574 108.748Z" fill="white"/>
<path d="M203.922 108.748C197.268 108.748 191.954 107.109 187.982 103.832C184.109 100.554 182.222 94.9431 182.321 86.9981L182.619 46.1805H172.936C171.645 46.1805 170.999 45.5349 170.999 44.2439C170.999 43.1514 171.248 41.8604 171.744 40.3707C172.241 38.881 172.688 37.8382 173.085 37.2423H182.619V25.3248C182.619 23.5371 183.364 22.2957 184.854 21.6005C186.443 20.806 188.578 20.1108 191.259 19.515C194.04 18.9191 196.523 18.6212 198.708 18.6212C198.41 20.2102 198.161 22.693 197.963 26.0696C197.764 29.3469 197.566 33.0712 197.367 37.2423H207.199C213.058 37.2423 217.577 36.994 220.755 36.4975C220.259 39.7748 219.563 42.4562 218.67 44.5418C218.173 45.6343 217.031 46.1805 215.243 46.1805H197.069C196.87 51.1461 196.721 56.1118 196.622 61.0774C196.622 66.043 196.622 70.5121 196.622 74.4846C196.622 76.5702 196.622 78.5068 196.622 80.2944C196.622 81.9828 196.672 83.4725 196.771 84.7635C197.069 89.3319 198.261 92.6092 200.346 94.5955C202.432 96.5817 204.865 97.5749 207.646 97.5749C209.731 97.5749 211.867 97.2769 214.052 96.6811C216.336 95.9859 218.868 94.9927 221.649 93.7017C221.947 94.5955 222.245 95.6879 222.543 96.979C222.94 98.2701 223.139 99.4122 223.139 100.405C223.139 101.498 222.642 102.392 221.649 103.087C218.57 104.974 215.591 106.414 212.711 107.407C209.93 108.301 207 108.748 203.922 108.748Z" fill="white"/>
<path d="M228.983 106.513C227.99 106.513 227.494 106.016 227.494 105.023C227.494 104.328 227.543 103.434 227.643 102.342C227.841 101.249 228.139 100.405 228.537 99.8094C231.715 99.6108 233.949 98.8163 235.24 97.4259C236.631 96.0355 237.425 94.0989 237.624 91.6161C237.822 89.9278 237.922 87.2463 237.922 83.5718C238.021 79.7979 238.071 75.9743 238.071 72.1011C238.071 68.2279 238.021 64.454 237.922 60.7795C237.922 57.1049 237.872 54.1752 237.773 51.9903C237.574 48.415 236.084 46.4784 233.304 46.1805L228.239 45.7336C227.245 45.6343 226.749 44.9887 226.749 43.797C226.749 42.4066 227.245 40.8176 228.239 39.0299C229.927 38.6327 232.012 38.2851 234.495 37.9872C236.978 37.5899 239.411 37.2423 241.795 36.9444C244.178 36.6464 245.966 36.4975 247.158 36.4975C249.144 36.4975 250.485 36.994 251.18 37.9872C251.974 38.9803 252.372 40.7183 252.372 43.2011C252.372 44.4922 252.372 45.9322 252.372 47.5212C254.556 43.648 257.238 40.619 260.416 38.4341C263.594 36.1499 267.12 35.0078 270.993 35.0078C273.277 35.0078 275.114 35.2561 276.505 35.7526C277.895 36.2492 279.087 36.7954 280.08 37.3913C280.775 37.7885 281.123 38.3844 281.123 39.1789C281.123 41.0659 280.527 43.3501 279.335 46.0315C278.243 48.6136 277.001 50.4013 275.611 51.3944C271.042 48.8123 267.07 47.5212 263.693 47.5212C260.714 47.5212 258.38 48.5143 256.692 50.5006C255.103 52.3875 253.961 55.0193 253.265 58.396C252.57 61.6733 252.173 65.3975 252.074 69.5686C252.074 70.8597 252.074 72.2004 252.074 73.5908C252.074 74.8819 252.074 76.173 252.074 77.464C252.074 80.4434 252.074 83.4725 252.074 86.5511C252.173 89.5305 252.272 92.2616 252.372 94.7445C252.471 96.0355 252.769 96.979 253.265 97.5749C253.762 98.0714 254.308 98.3694 254.904 98.4687C256.493 98.568 258.181 98.6673 259.969 98.7666C261.856 98.8659 263.445 98.9156 264.736 98.9156C264.736 99.9087 264.686 101.051 264.587 102.342C264.488 103.633 264.339 104.527 264.14 105.023C263.842 106.016 263.147 106.513 262.055 106.513H228.983Z" fill="white"/>
<path d="M318.646 108.748C311.892 108.748 305.934 107.308 300.769 104.427C295.704 101.547 291.732 97.4756 288.852 92.212C286.071 86.8491 284.681 80.642 284.681 73.5908C284.681 65.9437 286.22 59.2401 289.299 53.48C292.477 47.7198 296.896 43.2011 302.557 39.9238C308.218 36.6464 314.723 35.0078 322.072 35.0078C328.924 35.0078 334.883 36.4478 339.948 39.3279C345.112 42.208 349.085 46.2798 351.866 51.5434C354.746 56.7076 356.186 62.8154 356.186 69.8666C356.285 77.4144 354.746 84.118 351.568 89.9774C348.39 95.8369 343.97 100.455 338.31 103.832C332.649 107.109 326.094 108.748 318.646 108.748ZM321.476 99.6604C327.733 99.6604 332.599 97.3266 336.075 92.6589C339.65 87.9912 341.438 81.5855 341.438 73.4418C341.438 64.1064 339.303 56.9063 335.032 51.8413C330.861 46.677 325.597 44.0949 319.241 44.0949C313.183 44.0949 308.367 46.4784 304.791 51.2454C301.216 55.9131 299.429 62.4181 299.429 70.7604C299.429 79.7979 301.464 86.8987 305.536 92.063C309.608 97.128 314.921 99.6604 321.476 99.6604Z" fill="white"/>
<path d="M410.25 108.301C401.908 107.109 394.41 104.229 387.756 99.6604C381.201 94.9927 375.987 88.9843 372.114 81.6352C368.34 74.286 366.453 65.9934 366.453 56.7573C366.453 48.5143 367.893 40.9665 370.773 34.114C373.753 27.1621 377.824 21.1536 382.989 16.0887C388.252 10.9244 394.36 6.9519 401.312 4.17114C408.264 1.39038 415.712 0 423.657 0C431.205 0 438.107 1.34072 444.364 4.02217C450.72 6.6043 456.182 10.2292 460.751 14.8969C465.319 19.5646 468.845 25.0765 471.328 31.4325C473.91 37.6892 475.201 44.5418 475.201 51.9903C475.201 62.1202 473.065 71.257 468.795 79.4006C464.525 87.445 458.615 94.0493 451.068 99.2135C443.619 104.278 434.979 107.308 425.147 108.301C430.51 111.777 436.369 114.657 442.725 116.941C449.181 119.126 455.288 120.218 461.049 120.218C463.531 120.218 465.816 119.97 467.901 119.473C470.086 118.977 472.072 118.232 473.86 117.239C474.655 117.934 475.3 118.977 475.797 120.367C476.392 121.758 476.69 122.85 476.69 123.645C474.505 126.227 471.774 128.362 468.497 130.05C465.22 131.738 461.694 132.583 457.92 132.583C454.345 132.583 450.372 131.788 446.003 130.199C441.633 128.61 436.518 126.028 430.659 122.453C424.899 118.877 418.096 114.16 410.25 108.301ZM421.721 99.6604C429.368 99.6604 436.071 97.8232 441.832 94.1486C447.592 90.474 452.061 85.3594 455.239 78.8047C458.417 72.2501 460.006 64.7023 460.006 56.1614C460.006 46.9253 458.318 38.7817 454.941 31.7305C451.664 24.6792 446.996 19.1674 440.938 15.1949C434.88 11.123 427.779 9.08712 419.635 9.08712C412.485 9.08712 406.029 10.9741 400.269 14.748C394.608 18.4225 390.09 23.5371 386.713 30.0918C383.336 36.6464 381.648 44.1446 381.648 52.5862C381.648 61.9216 383.386 70.1149 386.862 77.1661C390.437 84.2173 395.254 89.7292 401.312 93.7017C407.37 97.6742 414.173 99.6604 421.721 99.6604Z" fill="white"/>
<path d="M515.078 108.748C511.205 108.748 507.58 107.903 504.203 106.215C500.926 104.427 498.294 101.895 496.308 98.6177C494.322 95.241 493.328 91.1195 493.328 86.2532L493.477 52.2882C493.477 50.302 493.13 48.9612 492.435 48.266C491.839 47.4715 490.796 47.0246 489.306 46.9253L483.943 46.4784C482.95 46.3791 482.454 45.7336 482.454 44.5418C482.454 43.1514 482.95 41.5624 483.943 39.7748C485.532 39.2782 487.568 38.8313 490.051 38.4341C492.633 38.0368 495.166 37.7389 497.649 37.5403C500.131 37.3416 501.969 37.2423 503.16 37.2423C505.047 37.2423 506.438 37.6892 507.332 38.583C508.225 39.4769 508.573 41.0659 508.374 43.3501C508.176 47.3226 508.027 51.593 507.927 56.1614C507.828 60.7298 507.778 65.0499 507.778 69.1217V82.529C507.778 87.9912 509.07 91.7651 511.652 93.8506C514.234 95.9362 517.263 96.979 520.739 96.979C523.818 96.979 526.996 96.3335 530.273 95.0424C533.55 93.7513 536.381 92.0134 538.764 89.8285C538.963 85.6573 539.112 81.1386 539.211 76.2723C539.31 71.3066 539.36 66.5396 539.36 61.9712C539.459 57.4028 539.509 53.5793 539.509 50.5006C539.509 49.1102 539.211 48.1667 538.615 47.6702C538.119 47.1736 537.225 46.8757 535.934 46.7763L531.316 46.4784C530.323 46.4784 529.826 45.8329 529.826 44.5418C529.826 43.1514 530.323 41.5624 531.316 39.7748C533.004 39.3775 535.04 38.9803 537.423 38.583C539.807 38.1858 542.141 37.8879 544.425 37.6892C546.808 37.3913 548.596 37.2423 549.788 37.2423C551.476 37.2423 552.668 37.6892 553.363 38.583C554.158 39.3775 554.456 40.9666 554.257 43.3501C554.158 45.3363 554.009 48.415 553.81 52.5862C553.711 56.658 553.611 61.276 553.512 66.4403C553.413 71.5052 553.313 76.4709 553.214 81.3372C553.214 86.2036 553.214 90.3747 553.214 93.8506C553.214 95.6383 553.462 96.83 553.959 97.4259C554.555 97.9225 555.449 98.1708 556.64 98.1708H561.407C562.401 98.1708 562.897 98.8163 562.897 100.107C562.897 101.498 562.401 103.087 561.407 104.874C559.223 105.669 556.591 106.414 553.512 107.109C550.533 107.705 548.099 108.003 546.213 108.003C544.822 107.705 543.332 106.761 541.743 105.172C540.254 103.484 539.261 101.15 538.764 98.1708C535.387 101.746 531.614 104.427 527.442 106.215C523.271 107.903 519.15 108.748 515.078 108.748Z" fill="white"/>
<path d="M569.533 106.513C568.54 106.513 568.044 105.818 568.044 104.427C568.044 102.739 568.341 101.2 568.937 99.8094C572.513 99.6108 574.995 98.8163 576.386 97.4259C577.876 96.0355 578.72 94.0989 578.918 91.6161C579.117 89.9278 579.216 87.3456 579.216 83.8697C579.316 80.3938 579.365 76.7192 579.365 72.846C579.365 68.9728 579.316 65.1989 579.216 61.5243C579.216 57.7504 579.167 54.771 579.067 52.5862C578.869 49.0109 577.379 47.0743 574.598 46.7763L569.533 46.3294C568.54 46.3294 568.044 45.6839 568.044 44.3928C568.044 43.1018 568.54 41.5624 569.533 39.7748C571.023 39.3775 573.109 38.9803 575.79 38.583C578.571 38.1858 581.252 37.8382 583.834 37.5403C586.516 37.2423 588.452 37.0933 589.644 37.0933C592.921 37.0933 594.411 39.0796 594.113 43.0521C593.915 45.9322 593.766 49.3585 593.666 53.331C593.567 57.2042 593.468 61.3257 593.368 65.6954C593.368 69.9659 593.368 74.137 593.368 78.2089C593.368 81.1883 593.368 84.0683 593.368 86.8491C593.468 89.6298 593.567 92.2616 593.666 94.7445C593.766 96.0355 594.064 96.979 594.56 97.5749C595.057 98.0714 595.603 98.3694 596.199 98.4687C597.093 98.568 598.235 98.6673 599.625 98.7666C601.115 98.8659 602.505 98.9156 603.796 98.9156C603.796 101.597 603.598 103.633 603.2 105.023C602.902 106.016 602.207 106.513 601.115 106.513H569.533ZM585.324 23.8351C582.245 23.8351 579.713 22.8916 577.727 21.0047C575.74 19.0184 574.747 16.6349 574.747 13.8541C574.747 10.8748 575.74 8.44159 577.727 6.55464C579.713 4.6677 582.245 3.72423 585.324 3.72423C588.403 3.72423 590.886 4.6677 592.772 6.55464C594.659 8.44159 595.603 10.8748 595.603 13.8541C595.603 16.6349 594.659 19.0184 592.772 21.0047C590.886 22.8916 588.403 23.8351 585.324 23.8351Z" fill="white"/>
<path d="M607.412 106.513V99.8094C613.768 90.8713 620.075 81.8834 626.331 72.846C632.588 63.8085 638.596 54.8207 644.357 45.8825L624.097 46.3294C622.309 46.4288 620.968 46.7764 620.075 47.3722C619.181 47.9681 618.386 49.1102 617.691 50.7985L615.308 56.7573C614.811 57.949 614.017 58.4456 612.924 58.247C611.137 58.0484 609.647 57.7008 608.455 57.2042C608.654 54.3241 608.902 51.4441 609.2 48.564C609.498 45.6839 609.994 42.8535 610.69 40.0727C610.888 39.0796 611.335 38.2851 612.03 37.6892C612.726 36.994 613.57 36.6961 614.563 36.7954C616.847 36.8947 619.429 36.994 622.309 37.0933C625.189 37.1927 627.722 37.2423 629.907 37.2423H663.872V43.499L625.438 98.0218L648.826 97.2769C650.812 97.1776 652.302 96.7804 653.295 96.0852C654.288 95.2907 655.082 94.0493 655.678 92.361L659.403 82.231C659.8 81.0393 660.594 80.5427 661.786 80.7413C662.68 80.8407 663.524 80.9896 664.319 81.1883C665.212 81.3869 666.106 81.6848 667 82.0821C666.702 85.6573 666.255 89.2822 665.659 92.9568C665.163 96.5321 664.666 100.058 664.17 103.534C664.07 104.527 663.673 105.371 662.978 106.066C662.283 106.662 661.438 106.91 660.445 106.811C656.771 106.612 653.146 106.513 649.571 106.513C645.995 106.513 642.37 106.513 638.696 106.513H607.412Z" fill="white"/>
</svg>
